<?xml version="1.0" standalone="no"?>
<!DOCTYPE svg PUBLIC "-//W3C//DTD SVG 20010904//EN"
 "http://www.w3.org/TR/2001/REC-SVG-20010904/DTD/svg10.dtd">
<svg version="1.0" xmlns="http://www.w3.org/2000/svg"
 width="604.000000pt" height="604.000000pt" viewBox="0 0 604.000000 604.000000"
 preserveAspectRatio="xMidYMid meet">
<metadata>
Created by potrace 1.11, written by Peter Selinger 2001-2013
</metadata>
<g transform="translate(0.000000,604.000000) scale(0.100000,-0.100000)"
fill="#000000" stroke="none">
<path d="M2900 5525 c-134 -30 -910 -454 -1548 -846 -304 -187 -385 -243 -442
-306 -98 -107 -149 -256 -150 -439 l0 -82 -88 -6 c-48 -3 -195 -10 -327 -16
-305 -13 -345 -17 -345 -36 0 -17 -23 -17 350 1 1951 93 3687 90 5568 -11 107
-6 122 -5 122 9 0 20 -36 24 -350 37 -135 5 -282 13 -327 16 l-81 6 -6 96
c-14 219 -57 333 -167 442 -49 48 -132 106 -325 226 -596 371 -1464 854 -1614
899 -79 23 -193 27 -270 10z m281 -149 c111 -39 712 -367 1144 -624 413 -246
599 -366 666 -430 106 -100 153 -214 162 -394 l3 -68 -48 0 -48 0 0 43 c0 23
-7 73 -15 112 -36 167 -116 259 -365 411 -443 273 -936 557 -1265 729 -60 31
-123 66 -140 75 -16 10 -66 31 -110 45 -69 23 -92 27 -165 23 -51 -3 -109 -13
-144 -26 -159 -58 -1188 -642 -1596 -907 -192 -125 -263 -231 -278 -420 l-7
-80 -48 -3 -47 -3 0 53 c1 90 27 208 62 277 62 125 136 182 606 465 440 266
944 549 1227 689 125 63 286 76 406 33z m-23 -155 c130 -40 946 -499 1531
-862 206 -127 289 -234 313 -407 6 -45 9 -84 7 -87 -6 -5 -688 15 -709 22 -10
3 -6 11 15 29 l30 26 -47 -26 c-39 -22 -59 -26 -125 -26 l-78 0 80 82 80 81
-70 -48 c-38 -27 -90 -64 -114 -82 -32 -24 -54 -33 -82 -33 -22 0 -39 4 -39
10 0 5 42 58 93 117 148 173 148 173 -95 -39 -164 -143 -167 -115 -11 102 69
96 122 172 117 167 -5 -4 -86 -85 -181 -179 -95 -95 -174 -170 -177 -168 -4 4
146 268 226 398 11 17 17 32 15 32 -5 0 -117 -134 -257 -308 -67 -83 -92 -103
-66 -54 15 28 88 181 162 340 24 51 44 96 44 99 0 8 -48 -61 -190 -271 -57
-85 -106 -153 -108 -151 -2 2 35 109 83 237 49 128 90 240 92 248 6 19 -59
-91 -167 -283 -73 -130 -109 -185 -95 -145 2 7 32 114 65 238 34 124 63 232
66 240 3 8 2 11 -2 8 -5 -6 -40 -83 -190 -417 -13 -30 -26 -52 -28 -50 -3 3
66 391 89 499 12 58 -17 -17 -95 -240 -45 -129 -84 -237 -87 -240 -3 -3 -2 29
2 70 36 376 43 455 41 458 -2 1 -32 -110 -66 -248 -35 -137 -67 -250 -70 -250
-3 0 -5 116 -3 258 1 141 1 253 -2 247 -2 -5 -22 -117 -44 -249 -22 -131 -42
-240 -45 -243 -7 -7 -15 63 -26 227 -13 189 -22 291 -25 288 -2 -2 -10 -102
-19 -223 -18 -236 -25 -309 -31 -303 -3 2 -20 105 -40 228 -20 124 -40 239
-45 255 -7 20 -8 -61 -5 -234 2 -145 0 -260 -4 -255 -5 5 -37 119 -71 254 -60
237 -79 298 -66 215 11 -76 47 -487 43 -491 -2 -2 -39 96 -81 218 -79 229 -94
270 -95 253 0 -5 19 -118 44 -250 24 -132 42 -241 40 -244 -3 -2 -13 16 -24
40 -70 159 -190 421 -195 426 -3 3 -1 -10 4 -28 5 -19 36 -133 69 -253 34
-121 59 -221 57 -223 -2 -2 -59 94 -126 214 -67 120 -126 223 -132 228 -10 10
-2 -11 109 -303 36 -95 64 -175 62 -177 -4 -3 -22 23 -207 295 -46 69 -89 130
-94 135 -5 6 21 -53 57 -130 142 -296 164 -346 156 -343 -5 2 -75 84 -156 183
-81 99 -153 187 -162 195 -14 13 -14 13 -5 -5 6 -11 62 -108 126 -215 63 -107
113 -196 110 -199 -3 -3 -86 76 -185 174 l-181 180 104 -145 c57 -80 114 -160
127 -177 l22 -33 -24 0 c-16 0 -69 39 -168 124 -79 68 -146 123 -147 121 -2
-2 41 -56 97 -121 56 -64 101 -121 101 -126 0 -4 -16 -8 -36 -8 -29 0 -57 15
-138 72 -55 39 -108 76 -116 81 -8 6 21 -26 65 -71 l80 -82 -78 0 c-65 0 -84
4 -117 25 -22 14 -40 22 -40 18 0 -5 9 -14 20 -21 11 -7 20 -16 20 -21 0 -4
-114 -11 -252 -15 -139 -3 -300 -9 -357 -13 l-104 -6 6 76 c12 134 73 252 172
330 210 165 1594 954 1702 970 77 11 194 6 251 -12z"/>
<path d="M1985 3700 c-690 -15 -1944 -56 -1971 -65 -6 -2 -9 -17 -6 -35 l5
-33 181 7 c1124 40 1717 51 2846 51 1034 -1 1375 -6 2335 -36 187 -6 410 -11
495 -12 l155 -2 3 31 3 31 -148 6 c-230 10 -998 36 -1423 47 -531 15 -1991 20
-2475 10z"/>
<path d="M1880 3559 c-755 -13 -1847 -43 -1855 -51 -2 -2 15 -106 37 -233 25
-149 37 -248 34 -280 -2 -27 -20 -144 -40 -259 -20 -115 -35 -211 -33 -212 4
-4 553 -22 1012 -34 1613 -41 2754 -37 4484 15 266 8 487 17 490 20 3 4 -13
117 -36 252 l-41 247 41 238 c22 131 38 240 35 244 -11 10 -969 38 -1913 54
-619 11 -1577 11 -2215 -1z m-60 -479 c115 -299 126 -322 171 -337 31 -11 25
-12 -65 -12 -78 -1 -96 2 -88 12 7 8 1 37 -22 97 l-32 85 -90 3 -90 3 -22 -69
c-28 -86 -28 -106 1 -120 17 -8 3 -11 -73 -11 -140 -1 -152 8 -282 199 -25 35
-32 40 -67 40 l-39 0 5 -97 c3 -54 9 -103 15 -110 5 -6 22 -14 36 -16 15 -2
-22 -5 -83 -5 -95 -2 -107 0 -85 11 l25 13 0 259 0 260 -30 5 c-59 11 -7 17
125 16 154 -1 186 -12 214 -70 30 -64 16 -131 -43 -199 l-32 -36 48 -68 c26
-37 71 -92 100 -123 46 -49 53 -53 67 -40 8 8 55 121 104 250 116 306 120 316
132 304 5 -5 50 -115 100 -244z m1598 244 c20 -6 22 -12 21 -73 -1 -65 -1 -66
-13 -31 -18 50 -70 83 -120 77 -51 -7 -80 -37 -80 -83 0 -38 17 -57 141 -161
175 -145 87 -360 -138 -340 -90 8 -99 16 -99 92 0 72 14 94 25 38 3 -20 19
-49 35 -65 57 -56 172 -28 186 46 9 52 -17 93 -106 168 -91 78 -120 125 -120
197 0 57 30 102 84 126 32 14 144 19 184 9z m-2633 -239 c99 -280 111 -305
155 -327 l35 -18 -89 0 c-73 0 -87 3 -83 14 3 8 -7 52 -22 98 l-28 83 -78 0
-78 0 -17 -51 c-33 -95 -34 -115 -11 -121 12 -3 21 -10 21 -15 0 -6 -10 -8
-22 -4 -13 3 -50 6 -83 7 -33 1 -48 4 -32 6 36 6 40 14 141 302 92 261 95 267
105 254 4 -4 43 -107 86 -228z m1647 224 c101 -22 168 -73 207 -159 26 -56 28
-166 5 -233 -22 -64 -91 -139 -156 -168 -50 -23 -64 -24 -238 -24 -185 0 -242
5 -185 15 23 4 31 12 36 35 11 52 10 485 -1 506 -6 11 -21 19 -35 19 -14 0
-25 5 -25 10 0 14 325 13 392 -1z m541 4 c-42 -8 -43 -19 -41 -298 l3 -268 40
-13 c36 -11 29 -12 -90 -13 -117 0 -127 1 -99 13 23 10 33 23 38 46 8 41 8
467 0 498 -4 14 -18 25 -38 31 -23 7 1 9 89 9 66 -1 110 -3 98 -5z m963 -15
c-3 -13 -6 -39 -7 -58 l-1 -35 -14 32 c-11 27 -21 33 -57 38 -23 4 -58 5 -77
3 l-35 -3 0 -105 0 -105 67 -3 c37 -2 77 2 89 8 11 7 22 10 23 8 6 -10 -7
-118 -15 -118 -5 0 -9 8 -9 18 0 32 -22 42 -91 42 l-66 0 1 -114 c1 -80 5
-119 14 -128 8 -8 37 -13 77 -12 69 1 105 20 105 56 0 10 5 18 11 18 12 0 2
-89 -13 -107 -7 -9 -56 -12 -184 -10 -96 1 -174 5 -174 9 0 4 12 8 27 10 38 4
40 20 42 294 1 250 0 257 -54 273 -20 6 31 10 159 10 l188 1 -6 -22z m632 16
c20 -6 22 -12 21 -68 l0 -61 -19 41 c-42 94 -180 79 -180 -20 0 -25 17 -47 99
-126 82 -78 101 -103 111 -139 21 -78 -4 -148 -68 -191 -31 -22 -47 -25 -117
-25 -99 0 -115 10 -114 69 1 22 4 52 8 66 7 25 8 24 15 -8 4 -18 19 -46 33
-62 21 -26 32 -30 74 -30 41 0 54 5 74 26 35 38 33 89 -5 142 -17 23 -33 42
-38 42 -15 0 -105 96 -124 134 -15 29 -19 52 -16 88 8 82 67 128 163 128 33 0
70 -3 83 -6z m322 -13 c0 -5 -10 -11 -22 -13 -23 -3 -23 -5 -26 -191 -3 -211
5 -257 50 -299 25 -23 39 -28 83 -28 60 0 99 24 120 74 17 40 27 258 18 361
-8 78 -9 80 -35 83 -16 2 -28 8 -28 14 0 6 10 8 23 4 12 -3 54 -6 92 -7 39 -1
61 -3 50 -6 -41 -10 -45 -29 -45 -207 0 -94 -5 -187 -10 -207 -27 -97 -100
-149 -210 -149 -83 0 -135 28 -170 90 -24 43 -25 54 -28 230 -1 102 -5 195 -8
208 -3 14 -18 29 -37 37 -30 13 -25 14 76 15 59 0 107 -4 107 -9z m575 -111
c54 -63 132 -156 174 -207 l76 -92 3 160 c3 181 -4 222 -36 227 -12 2 -22 7
-22 11 0 4 34 7 75 7 41 -1 75 -4 75 -8 0 -5 -7 -8 -15 -8 -29 0 -35 -51 -35
-290 0 -136 -4 -241 -9 -245 -8 -4 -247 264 -333 375 l-28 35 1 -165 c2 -205
5 -224 42 -228 15 -2 27 -7 27 -12 0 -5 -42 -9 -92 -8 -87 0 -91 1 -62 13 l31
14 6 173 c4 95 7 217 7 271 0 54 4 97 9 95 5 -1 52 -55 106 -118z m-5044 84
c38 -19 59 -77 49 -137 -11 -74 -60 -128 -127 -142 -39 -8 -45 10 -8 19 85 21
85 220 1 242 -61 15 -61 17 -64 -191 -2 -105 0 -214 3 -242 6 -49 9 -54 38
-62 25 -7 9 -9 -68 -9 -55 0 -92 2 -82 5 32 8 37 49 37 277 0 232 -2 244 -44
248 -12 1 22 4 74 7 110 7 155 3 191 -15z"/>
<path d="M1127 3168 c-9 -157 -11 -152 47 -156 60 -4 80 12 96 78 23 95 -23
180 -98 180 l-39 0 -6 -102z"/>
<path d="M1661 3084 c-17 -47 -31 -92 -31 -100 0 -11 16 -14 65 -14 50 0 65 3
65 14 0 15 -60 186 -65 186 -1 0 -16 -39 -34 -86z"/>
<path d="M644 3078 c-15 -46 -29 -89 -32 -95 -3 -10 13 -13 63 -13 50 0 66 3
63 13 -3 6 -17 49 -32 95 -15 45 -29 82 -31 82 -2 0 -16 -37 -31 -82z"/>
<path d="M2208 3274 c-10 -9 -9 -440 1 -474 19 -70 227 -58 292 16 80 92 76
282 -8 375 -54 60 -104 82 -198 87 -44 2 -83 1 -87 -4z"/>
<path d="M7 2434 c-3 -16 -2 -32 1 -35 4 -4 223 -14 487 -23 2051 -71 3097
-71 5016 -1 224 8 432 15 463 15 l56 0 0 37 0 36 -222 -7 c-123 -4 -353 -11
-513 -16 -865 -28 -1301 -34 -2265 -35 -966 0 -1426 7 -2280 35 -157 5 -387
12 -511 16 l-226 7 -6 -29z"/>
<path d="M0 2241 c0 -5 64 -12 143 -16 78 -4 248 -12 377 -18 l235 -12 7 -116
c8 -142 28 -224 75 -309 68 -120 124 -164 553 -427 587 -359 1328 -768 1474
-812 126 -39 279 -25 404 37 586 291 1681 936 1833 1079 116 110 161 225 174
444 l7 105 376 18 c207 9 378 19 381 22 15 15 -45 15 -366 0 -1234 -56 -1631
-65 -2798 -61 -572 2 -1175 8 -1340 14 -536 19 -1076 42 -1250 51 -214 12
-285 12 -285 1z m974 -67 c3 -9 6 -37 6 -63 0 -61 23 -148 56 -213 47 -93 130
-162 369 -309 547 -338 1319 -770 1458 -818 162 -56 273 -34 527 104 47 25
148 80 225 122 522 284 1211 701 1299 787 88 85 145 227 146 359 l0 47 49 0
49 0 -5 -82 c-13 -214 -85 -348 -247 -457 -318 -214 -1115 -676 -1560 -905
-179 -92 -250 -112 -364 -104 -90 7 -167 35 -314 114 -67 37 -186 100 -263
142 -334 179 -964 550 -1220 717 -214 139 -285 254 -301 483 l-7 92 45 0 c33
0 48 -5 52 -16z m656 -11 l144 -6 -39 -34 c-49 -42 -41 -42 34 2 48 28 70 35
114 35 29 0 57 -3 61 -7 3 -4 -33 -47 -81 -96 l-88 -90 70 49 c39 26 96 67
127 91 45 35 65 43 98 43 l41 0 -78 -91 c-181 -211 -181 -215 4 -56 97 84 180
147 188 145 12 -2 -6 -34 -67 -118 -200 -276 -200 -274 7 -70 103 102 182 174
175 160 -7 -14 -58 -101 -113 -195 -55 -93 -109 -186 -120 -205 l-20 -35 20
20 c11 11 85 99 163 195 78 96 146 176 151 178 5 2 -21 -59 -57 -135 -108
-226 -154 -324 -154 -330 0 -7 230 327 269 391 13 20 25 35 28 32 4 -4 -29
-96 -169 -466 -20 -52 13 1 132 213 68 120 124 216 126 214 2 -2 -26 -110 -62
-241 -36 -131 -64 -240 -62 -242 2 -2 33 61 68 139 115 255 141 309 145 306 3
-4 -74 -429 -91 -499 -15 -65 13 7 87 216 43 126 82 235 84 243 16 42 14 -19
-5 -215 -11 -121 -22 -235 -25 -254 -10 -74 15 8 70 230 31 124 59 228 63 232
4 4 6 -111 5 -255 -2 -144 -1 -257 2 -252 2 6 23 120 45 255 23 134 43 246 45
248 6 6 14 -74 30 -303 9 -120 18 -221 20 -224 3 -2 5 6 5 18 0 75 39 515 45
509 2 -2 20 -105 40 -228 19 -124 40 -238 45 -255 7 -20 8 58 5 234 -3 159 -1
261 4 255 5 -5 35 -110 65 -234 59 -236 80 -300 71 -220 -9 78 -45 444 -45
460 0 34 21 -18 96 -232 43 -125 80 -225 82 -223 3 3 -69 409 -85 475 -13 57
20 -5 113 -212 53 -120 99 -216 101 -214 3 2 -25 111 -61 242 -36 131 -64 239
-62 241 2 2 61 -98 131 -222 70 -124 129 -225 131 -225 4 0 -19 62 -116 318
-34 90 -60 165 -58 167 2 2 69 -92 148 -209 80 -118 146 -213 148 -211 4 3
-193 422 -215 459 -3 5 -1 7 4 5 11 -4 50 -51 227 -268 54 -66 101 -121 103
-121 5 0 -3 15 -125 221 -60 101 -114 195 -121 209 -7 14 73 -60 179 -165
l192 -190 -136 190 c-99 137 -132 191 -121 193 9 2 39 -16 68 -41 228 -195
277 -237 277 -232 0 4 -52 67 -115 141 l-116 134 40 0 c30 0 52 -10 97 -43 33
-23 91 -64 129 -91 l70 -49 -87 89 c-49 49 -88 93 -88 97 0 13 125 8 145 -6
11 -8 43 -26 70 -42 l50 -28 -45 40 -44 40 154 6 c85 4 256 10 379 13 l224 7
-8 -68 c-13 -129 -69 -242 -155 -317 -164 -144 -1557 -941 -1715 -982 -75 -20
-155 -20 -230 0 -130 33 -842 429 -1490 828 -202 124 -292 203 -337 296 -29
62 -48 141 -48 202 l0 41 228 -7 c125 -3 292 -9 372 -13z"/>
</g>
</svg>
